<svg xmlns="http://www.w3.org/2000/svg" viewBox="0 0 512 512">
  <path fill="#32BCAD" d="M326.7 186.3a30.1 30.1 0 0 0-21.3 8.8L272 228.5a22.8 22.8 0 0 1-32.1 0l-33.5-33.4a30.2 30.2 0 0 0-21.3-8.8h-6.6l48.1 48a28.3 28.3 0 0 0 40 0l48-48h-8z"/>
  <path fill="#32BCAD" d="M202.3 325.7a30.1 30.1 0 0 0 21.3-8.8L257 283.4a22.8 22.8 0 0 1 32.1 0l33.4 33.5a30.2 30.2 0 0 0 21.3 8.8h4.8l-48-48.1a28.3 28.3 0 0 0-40 0l-48 48h2.7z"/>
  <path fill="#32BCAD" d="M413.7 227.5l-39-39a7.5 7.5 0 0 1-2.3.4h-7.7a23 23 0 0 0-16.3 6.7L315 229.1a17.3 17.3 0 0 1-24.5 0l-33.4-33.5a23 23 0 0 0-16.3-6.7h-8a7.5 7.5 0 0 1-2.3-.4l-39 39a27.6 27.6 0 0 0 0 39.1l39 39a7.5 7.5 0 0 1 2.3-.4h8a23 23 0 0 0 16.3-6.7l33.4-33.5a17.3 17.3 0 0 1 24.5 0l33.4 33.5a23 23 0 0 0 16.3 6.7h7.7a7.5 7.5 0 0 1 2.3.4l39-39a27.6 27.6 0 0 0 0-39.1z"/>
</svg>
